<?xml version="1.0" encoding="utf-8"?>
<!-- Generator: Adobe Illustrator 26.0.1, SVG Export Plug-In . SVG Version: 6.00 Build 0)  -->
<svg version="1.1" id="Layer_1" xmlns="http://www.w3.org/2000/svg" xmlns:xlink="http://www.w3.org/1999/xlink" x="0px" y="0px"
	 viewBox="0 0 108 56" style="enable-background:new 0 0 108 56;" xml:space="preserve">
<style type="text/css">
	.st0{fill:#001659;}
</style>
<path class="st0" d="M5.6,21.3H1.3V1.7h3.8l7.3,12.2l7.2-12.2h3.8v19.6h-4.2L19.1,9.6l-5.8,9.6h-2L5.6,9.8V21.3z M32.9,21.3h4.6v-7
	l7.6-12.6h-4.4l-5.2,8.7l-5.2-8.7h-4.8l7.6,12.6V21.3z M18.5,46.7c0.5,0.8,0.8,1.7,0.8,2.9c0,1.7-0.7,3-2,3.9
	c-1.3,0.9-3.3,1.4-5.9,1.4H1.3V35.3h9.6c2.5,0,4.3,0.5,5.6,1.4c1.2,0.9,1.9,2.2,1.9,3.7c0,1-0.3,1.9-0.8,2.7
	c-0.5,0.7-1.1,1.2-1.8,1.6c0.2,0.1,0.4,0.1,0.5,0.2C17.2,45.3,17.9,45.9,18.5,46.7z M5.8,38.7v4.6h4.5c1.1,0,1.9-0.2,2.5-0.6
	s0.9-1,0.9-1.8s-0.3-1.4-0.9-1.7c-0.6-0.4-1.4-0.6-2.5-0.6H5.8z M14.7,49.1c0-0.8-0.3-1.5-0.9-1.8c-0.6-0.4-1.5-0.6-2.7-0.6H5.8v4.8
	h5.3c1.2,0,2-0.2,2.7-0.6C14.4,50.5,14.7,49.9,14.7,49.1z M35.7,48.6l4.4,6.3h-4.9l-3.8-5.5c-0.1,0-0.1,0-0.2,0h-3.9v5.5h-4.6V35.3
	h8.5c1.8,0,3.3,0.3,4.5,0.9c1.3,0.6,2.2,1.4,2.9,2.5c0.7,1.1,1,2.3,1,3.8c0,1.5-0.3,2.7-1,3.8C38,47.3,37,48.1,35.7,48.6
	C35.8,48.6,35.7,48.6,35.7,48.6z M31,39h-3.7v6.8H31c1.4,0,2.4-0.3,3.1-0.9c0.7-0.6,1.1-1.4,1.1-2.5c0-1.1-0.4-1.9-1.1-2.5
	S32.4,39,31,39z M53.9,35.3l8.8,19.6H58l-1.7-4.2h-9.1l-1.7,4.2h-4.6l8.7-19.6H53.9z M54.8,47.3l-3.1-7.5l-3.1,7.5H54.8z M78.3,47.2
	l-9.7-11.9h-3.8v19.6h4.5V43L79,54.9h3.8V35.3h-4.5V47.2z M107.1,45.1c0,2-0.5,3.7-1.4,5.2c-0.9,1.5-2.2,2.6-3.8,3.4
	c-1.6,0.8-3.5,1.2-5.6,1.2h-8.9V35.3h8.9c2.1,0,4,0.4,5.6,1.2c1.6,0.8,2.9,2,3.8,3.4C106.7,41.4,107.1,43.1,107.1,45.1z M102.5,45.1
	c0-1.2-0.3-2.3-0.8-3.2c-0.5-0.9-1.3-1.6-2.2-2.1c-1-0.5-2.1-0.7-3.4-0.7H92v12.2h4.1c1.3,0,2.4-0.2,3.4-0.7c1-0.5,1.7-1.2,2.2-2.1
	C102.2,47.4,102.5,46.4,102.5,45.1z"/>
</svg>
